<mxfile host="www.draw.io" modified="2019-11-22T16:14:38.888Z" agent="Mozilla/5.0 (Macintosh; Intel Mac OS X 10_14_6) AppleWebKit/537.36 (KHTML, like Gecko) Chrome/78.0.3904.97 Safari/537.36" etag="38YRQOzfJ0oWURO-ng2J" version="12.2.9" type="github" pages="1">
  <diagram name="Page-1" id="e7e014a7-5840-1c2e-5031-d8a46d1fe8dd">
    <mxGraphModel dx="2066" dy="1114" grid="1" gridSize="10" guides="1" tooltips="1" connect="1" arrows="1" fold="1" page="1" pageScale="1" pageWidth="1169" pageHeight="826" background="#ffffff" math="0" shadow="0">
      <root>
        <mxCell id="0"/>
        <mxCell id="1" parent="0"/>
        <mxCell id="2" value="Blue" style="swimlane;whiteSpace=wrap" parent="1" vertex="1">
          <mxGeometry x="170" y="128" width="275" height="432" as="geometry"/>
        </mxCell>
        <mxCell id="8bgQxgsieyUmaJh0PoK6-41" value="Happiness Admin" style="shape=umlActor;verticalLabelPosition=bottom;labelBackgroundColor=#ffffff;verticalAlign=top;html=1;outlineConnect=0;" vertex="1" parent="2">
          <mxGeometry x="110" y="62" width="30" height="60" as="geometry"/>
        </mxCell>
        <mxCell id="8bgQxgsieyUmaJh0PoK6-50" style="edgeStyle=orthogonalEdgeStyle;rounded=0;orthogonalLoop=1;jettySize=auto;html=1;" edge="1" parent="2" source="8bgQxgsieyUmaJh0PoK6-48" target="8bgQxgsieyUmaJh0PoK6-49">
          <mxGeometry relative="1" as="geometry"/>
        </mxCell>
        <mxCell id="8bgQxgsieyUmaJh0PoK6-48" value="Service Expert" style="shape=umlActor;verticalLabelPosition=bottom;labelBackgroundColor=#ffffff;verticalAlign=top;html=1;outlineConnect=0;" vertex="1" parent="2">
          <mxGeometry x="35.5" y="202" width="30" height="60" as="geometry"/>
        </mxCell>
        <mxCell id="8bgQxgsieyUmaJh0PoK6-49" value="Create solution&lt;br&gt;to send a mini-belevenis gift" style="rounded=0;whiteSpace=wrap;html=1;" vertex="1" parent="2">
          <mxGeometry x="140.5" y="202" width="120" height="60" as="geometry"/>
        </mxCell>
        <mxCell id="3" value="CHAPS" style="swimlane;whiteSpace=wrap" parent="1" vertex="1">
          <mxGeometry x="445" y="128" width="284" height="432" as="geometry"/>
        </mxCell>
        <mxCell id="17" value="" style="endArrow=open;strokeColor=#FF0000;endFill=1;rounded=0" parent="3" target="16" edge="1">
          <mxGeometry relative="1" as="geometry">
            <mxPoint x="75" y="160" as="sourcePoint"/>
          </mxGeometry>
        </mxCell>
        <mxCell id="8bgQxgsieyUmaJh0PoK6-47" style="edgeStyle=orthogonalEdgeStyle;rounded=0;orthogonalLoop=1;jettySize=auto;html=1;" edge="1" parent="3" source="7" target="8bgQxgsieyUmaJh0PoK6-46">
          <mxGeometry relative="1" as="geometry"/>
        </mxCell>
        <mxCell id="7" value="Enable/Disable &#xa;Mini-Belevenis &#xa;Gifts" style="" parent="3" vertex="1">
          <mxGeometry x="75" y="67" width="110" height="50" as="geometry"/>
        </mxCell>
        <mxCell id="8bgQxgsieyUmaJh0PoK6-46" value="Gifts" style="shape=cylinder;whiteSpace=wrap;html=1;boundedLbl=1;backgroundOutline=1;" vertex="1" parent="3">
          <mxGeometry x="100" y="192" width="60" height="80" as="geometry"/>
        </mxCell>
        <mxCell id="8bgQxgsieyUmaJh0PoK6-53" value="Process mini-belevenis gift &lt;br&gt;request" style="rounded=1;whiteSpace=wrap;html=1;" vertex="1" parent="3">
          <mxGeometry x="65" y="347" width="120" height="60" as="geometry"/>
        </mxCell>
        <mxCell id="4" value="MINC" style="swimlane;whiteSpace=wrap" parent="1" vertex="1">
          <mxGeometry x="729" y="128" width="275" height="432" as="geometry"/>
        </mxCell>
        <mxCell id="8bgQxgsieyUmaJh0PoK6-56" value="Create &lt;br&gt;mini-belevenis" style="rounded=0;whiteSpace=wrap;html=1;" vertex="1" parent="4">
          <mxGeometry x="80.5" y="347" width="120" height="60" as="geometry"/>
        </mxCell>
        <mxCell id="8bgQxgsieyUmaJh0PoK6-43" style="edgeStyle=orthogonalEdgeStyle;rounded=0;orthogonalLoop=1;jettySize=auto;html=1;" edge="1" parent="1" source="8bgQxgsieyUmaJh0PoK6-41" target="7">
          <mxGeometry relative="1" as="geometry"/>
        </mxCell>
        <mxCell id="8bgQxgsieyUmaJh0PoK6-51" style="edgeStyle=orthogonalEdgeStyle;rounded=0;orthogonalLoop=1;jettySize=auto;html=1;" edge="1" parent="1" source="8bgQxgsieyUmaJh0PoK6-49" target="8bgQxgsieyUmaJh0PoK6-46">
          <mxGeometry relative="1" as="geometry"/>
        </mxCell>
        <mxCell id="8bgQxgsieyUmaJh0PoK6-52" value="retrieve enabled&lt;br&gt;gifts" style="text;html=1;align=center;verticalAlign=middle;resizable=0;points=[];;labelBackgroundColor=#ffffff;" vertex="1" connectable="0" parent="8bgQxgsieyUmaJh0PoK6-51">
          <mxGeometry x="-0.2" y="-3" relative="1" as="geometry">
            <mxPoint x="17" y="17" as="offset"/>
          </mxGeometry>
        </mxCell>
        <mxCell id="8bgQxgsieyUmaJh0PoK6-54" style="edgeStyle=orthogonalEdgeStyle;rounded=0;orthogonalLoop=1;jettySize=auto;html=1;entryX=0;entryY=0.5;entryDx=0;entryDy=0;" edge="1" parent="1" source="8bgQxgsieyUmaJh0PoK6-49" target="8bgQxgsieyUmaJh0PoK6-53">
          <mxGeometry relative="1" as="geometry">
            <Array as="points">
              <mxPoint x="360" y="505"/>
            </Array>
          </mxGeometry>
        </mxCell>
        <mxCell id="8bgQxgsieyUmaJh0PoK6-55" value="process solution" style="text;html=1;align=center;verticalAlign=middle;resizable=0;points=[];;labelBackgroundColor=#ffffff;" vertex="1" connectable="0" parent="8bgQxgsieyUmaJh0PoK6-54">
          <mxGeometry x="-0.447" y="2" relative="1" as="geometry">
            <mxPoint as="offset"/>
          </mxGeometry>
        </mxCell>
        <mxCell id="8bgQxgsieyUmaJh0PoK6-59" style="edgeStyle=orthogonalEdgeStyle;rounded=0;orthogonalLoop=1;jettySize=auto;html=1;" edge="1" parent="1" source="8bgQxgsieyUmaJh0PoK6-53" target="8bgQxgsieyUmaJh0PoK6-56">
          <mxGeometry relative="1" as="geometry"/>
        </mxCell>
        <mxCell id="8bgQxgsieyUmaJh0PoK6-60" value="minc&lt;br&gt;request" style="text;html=1;align=center;verticalAlign=middle;resizable=0;points=[];;labelBackgroundColor=#ffffff;" vertex="1" connectable="0" parent="8bgQxgsieyUmaJh0PoK6-59">
          <mxGeometry x="-0.3864" relative="1" as="geometry">
            <mxPoint x="7" as="offset"/>
          </mxGeometry>
        </mxCell>
      </root>
    </mxGraphModel>
  </diagram>
</mxfile>
